<svg width="786" height="241" viewBox="0 0 786 241" fill="none" xmlns="http://www.w3.org/2000/svg">
<path fill-rule="evenodd" clip-rule="evenodd" d="M25.5343 37.347C24.6985 38.2335 24.8925 39.6595 25.8979 40.3477C84.2642 80.3015 101.287 143.298 109.078 186.121C109.279 187.226 110.344 187.939 111.439 187.691C111.804 187.609 112.168 187.524 112.531 187.437C113.546 187.194 114.186 186.213 114 185.187C106.157 142.022 88.7425 77.3652 28.8315 36.295C28.0434 35.7548 26.9717 35.8497 26.3077 36.5368C26.0482 36.8053 25.7904 37.0754 25.5343 37.347ZM34.3829 29.1294C33.353 29.9657 33.468 31.562 34.5639 32.3098C95.4532 73.859 111.461 140.456 118.856 183.292C119.063 184.494 120.283 185.218 121.434 184.814C121.791 184.688 122.148 184.56 122.503 184.43C123.396 184.103 123.922 183.199 123.76 182.262C116.332 139.206 99.9516 71.0109 37.6159 28.3378C36.9074 27.8528 35.9573 27.8744 35.284 28.4071C34.9821 28.646 34.6817 28.8868 34.3829 29.1294ZM46.6212 20.7516C45.3479 21.4779 45.3378 23.2926 46.5512 24.1151C108.864 66.3581 124.417 134.77 131.665 177.598C131.891 178.929 133.336 179.645 134.522 179.001C134.871 178.811 135.218 178.62 135.564 178.426C136.291 178.019 136.679 177.215 136.54 176.394C129.262 133.412 113.323 63.5838 49.7626 20.2508C49.151 19.8338 48.3491 19.7875 47.7012 20.1454C47.3397 20.3451 46.9797 20.5472 46.6212 20.7516Z" fill="#DF4E21"/>
<path fill-rule="evenodd" clip-rule="evenodd" d="M40.6629 174.008C40.0482 174.254 39.3634 174.173 38.8197 173.796C38.4485 173.538 38.0793 173.277 37.7121 173.014C36.4498 172.109 36.7169 170.191 38.16 169.616C54.975 162.922 75.1623 153.604 94.5643 139.172C95.5373 140.576 96.5205 141.924 97.5096 143.212C77.8809 157.807 57.5397 167.259 40.6629 174.008ZM126.912 115.993C142.119 98.3671 155.216 76.0454 163.58 47.4979C163.753 46.9088 163.646 46.2614 163.282 45.7673C163.004 45.3906 162.724 45.0161 162.44 44.6438C161.458 43.3536 159.443 43.811 158.992 45.3688C151.203 72.3097 139.112 93.5793 124.983 110.533C125.678 112.371 126.321 114.193 126.912 115.993ZM120.749 100.547C134.477 83.6956 146.257 62.7673 154.039 36.5656C154.247 35.866 154.058 35.0948 153.535 34.5855C153.236 34.2946 152.935 34.0057 152.633 33.7189C151.561 32.7029 149.805 33.2444 149.388 34.6614C142.087 59.4562 131.129 79.4124 118.304 95.6023C119.14 97.2115 119.957 98.8608 120.749 100.547ZM86.8093 126.315C65.8173 142.267 43.7701 152.127 25.9705 159.068C24.661 159.578 24.2796 161.236 25.2554 162.247C25.5378 162.54 25.8221 162.83 26.1083 163.119C26.6611 163.677 27.4776 163.853 28.2091 163.567C45.9598 156.63 68.0623 146.714 89.2452 130.742C88.4179 129.305 87.6049 127.828 86.8093 126.315ZM83.8071 120.25C62.1561 137.304 39.2497 147.8 20.8036 155.074C19.9866 155.396 19.0698 155.139 18.5354 154.442C18.3001 154.135 18.0668 153.827 17.8354 153.517C17.0575 152.476 17.4908 150.999 18.7004 150.522C37.2757 143.207 60.2166 132.701 81.714 115.529C82.2483 116.796 82.8066 118.068 83.3889 119.343C83.5275 119.646 83.6669 119.949 83.8071 120.25ZM114.743 89.185C127.243 73.037 137.949 53.3064 145.219 29.0355C145.455 28.2465 145.183 27.3781 144.523 26.8849C144.209 26.6502 143.893 26.4175 143.576 26.1868C142.472 25.3834 140.914 25.97 140.525 27.2789C133.667 50.3035 123.649 69.1365 111.917 84.6449C112.873 86.1063 113.816 87.621 114.743 89.185Z" fill="#DFB921"/>
<path fill-rule="evenodd" clip-rule="evenodd" d="M94.6436 188.39C94.9623 189.622 94.08 190.854 92.808 190.887C92.0055 190.908 91.2005 190.919 90.393 190.919C90.242 190.919 90.1095 190.815 90.0711 190.669C86.6328 177.607 84.5314 165.335 83.5258 153.81C84.6966 152.838 85.8432 151.812 86.9618 150.735C87.3847 150.327 87.8004 149.915 88.2086 149.5C89.0103 161.558 91.0511 174.503 94.6436 188.39ZM62.5019 165.062C63.9315 172.166 65.7649 179.519 68.046 187.13C68.2477 187.803 68.7926 188.328 69.4763 188.49C69.8934 188.588 70.3116 188.684 70.7309 188.777C72.2025 189.103 73.4388 187.693 73.0028 186.25C70.6196 178.363 68.7287 170.765 67.2779 163.447C65.695 164.065 64.1008 164.603 62.5019 165.062ZM73.791 160.418C75.0884 169.516 77.0595 179.051 79.8093 189.042C80.0253 189.827 80.7013 190.41 81.5114 190.489C81.904 190.527 82.2972 190.563 82.6912 190.596C84.0622 190.711 85.0954 189.398 84.7283 188.072C81.7672 177.375 79.7205 167.227 78.4509 157.601C76.9242 158.622 75.3685 159.561 73.791 160.418ZM102.515 70.3901C101.596 68.4812 100.629 66.6377 99.6234 64.8674C108.993 45.9284 120.589 31.4087 129.733 20.5864C130.327 19.8832 131.325 19.6777 132.142 20.1031C132.479 20.2788 132.816 20.4566 133.15 20.6364C134.254 21.2289 134.511 22.6825 133.702 23.6389C124.068 35.0379 111.907 50.2702 102.515 70.3901ZM92.1097 53.8359C93.2349 55.2083 94.3423 56.6694 95.4231 58.2118C104.255 41.645 114.681 28.7521 123.096 18.8149C123.974 17.7779 123.586 16.1889 122.315 15.7095C121.943 15.5693 121.57 15.4315 121.196 15.2961C120.421 15.0157 119.558 15.2517 119.026 15.8807C110.937 25.4411 100.865 37.9233 92.1097 53.8359ZM107.006 14.4302C99.9378 22.9176 91.8135 33.3623 84.5047 46.1368C83.132 45.0198 81.761 44.0496 80.4063 43.2382C87.7203 30.5339 95.7792 20.1192 102.759 11.7129C103.202 11.1787 103.89 10.9159 104.576 11.0239C105.008 11.0919 105.439 11.163 105.87 11.2371C107.361 11.4941 107.974 13.2676 107.006 14.4302Z" fill="#4F4542"/>
<path fill-rule="evenodd" clip-rule="evenodd" d="M0.00240253 94.9312C-0.0320505 95.6367 0.307697 96.2976 0.902957 96.6779C17.7006 107.409 38.894 119.084 64.2363 126.705C65.0119 125.085 66.1106 123.638 67.4527 122.442C41.6657 114.947 20.1447 103.067 3.09658 92.1393C1.83344 91.3297 0.169069 92.1414 0.0746865 93.6387C0.0475819 94.0687 0.0234803 94.4996 0.00240253 94.9312ZM133.715 134.593C146.991 133.675 160.951 131.353 175.579 127.267C176.224 127.087 176.746 126.59 176.942 125.949C177.071 125.527 177.198 125.104 177.321 124.679C177.752 123.191 176.331 121.858 174.841 122.279C159.484 126.615 144.883 128.959 131.053 129.747C132.341 130.948 133.293 132.642 133.715 134.593ZM178.807 111.827C160.764 116.69 143.745 118.872 127.784 119.058C129.489 117.779 131.129 116.04 132.518 113.937C146.8 113.407 161.923 111.225 177.868 106.9C179.21 106.536 180.539 107.595 180.394 108.977C180.353 109.373 180.309 109.768 180.262 110.162C180.168 110.959 179.582 111.618 178.807 111.827ZM141.934 100.516C153.534 99.6417 165.665 97.6677 178.319 94.3446C179.547 94.0222 180.791 94.8903 180.835 96.1585C180.849 96.5362 180.86 96.9145 180.869 97.2934C180.89 98.2022 180.265 99.0057 179.385 99.2358C165.726 102.81 152.658 104.849 140.196 105.653C141.19 104.186 141.816 102.424 141.934 100.516ZM75.5392 93.6423C75.8827 95.4584 76.3197 97.3168 76.8518 99.2005C48.7803 91.5652 25.5609 78.7691 7.50773 67.1743C6.7073 66.6602 6.39449 65.6588 6.75886 64.7801C6.9034 64.4314 7.05007 64.0839 7.19883 63.7375C7.68032 62.6164 9.04416 62.2119 10.0706 62.8717C27.3368 73.9701 49.2322 86.0995 75.5392 93.6423ZM79.4254 113.444C79.6076 111.747 79.8407 110.085 80.1217 108.465C49.7793 100.917 24.9646 87.0019 5.9848 74.6476C4.86327 73.9176 3.36456 74.4727 3.01567 75.7646C2.91335 76.1435 2.81343 76.5233 2.71593 76.9042C2.50658 77.7218 2.83597 78.5706 3.54371 79.0305C22.8312 91.5646 48.2604 105.776 79.4254 113.444Z" fill="#21DFA3"/>
<g filter="url(#filter0_d_2_54)">
<path d="M202.566 142L202.2 136.727L209.085 135.042C209.427 133.724 209.598 127.864 209.598 117.464L209.744 96.9561C209.744 92.1709 209.671 88.2891 209.524 85.3105C209.427 82.2832 209.329 80.5498 209.231 80.1104L201.834 78.3525L202.2 73.0059H238.089C240.237 73.0059 242.776 72.9814 245.706 72.9326C248.685 72.835 251.272 72.6885 253.47 72.4932L256.326 89.1191L250.101 89.998L245.779 79.8906C244.412 79.5 242.801 79.3047 240.945 79.3047H230.252C228.982 79.3047 227.664 79.3779 226.297 79.5244C224.93 79.6221 223.831 79.7441 223.001 79.8906C222.952 80.5254 222.928 81.8926 222.928 83.9922C222.928 86.043 222.928 89.4854 222.928 94.3193L223.001 120.833C223.001 124.544 223.074 127.718 223.221 130.354C223.367 132.991 223.514 134.554 223.66 135.042L233.182 136.507L232.815 142H202.566ZM241.531 119.368L240.213 111.019C238.797 110.726 236.697 110.579 233.914 110.579H225.931C224.808 110.579 223.685 110.628 222.562 110.726C221.487 110.774 220.413 110.823 219.339 110.872V103.401C220.169 103.45 221.17 103.523 222.342 103.621C223.514 103.719 224.71 103.768 225.931 103.768H233.914C235.525 103.768 236.868 103.719 237.942 103.621C239.017 103.523 239.773 103.426 240.213 103.328L241.531 95.5645H247.61V119.368H241.531ZM261.087 142L260.721 137.02L268.411 135.188C268.558 134.017 268.704 131.502 268.851 127.645C268.997 123.787 269.07 119.344 269.07 114.314V99.4463C269.07 95.7354 269.046 91.9756 268.997 88.167C268.948 84.3096 268.875 80.8672 268.777 77.8398C268.729 74.8125 268.631 72.6396 268.484 71.3213L259.769 70.1494L259.549 65.5352L279.617 60.1885L282.547 62.0928C282.4 65.4131 282.278 68.6602 282.181 71.834C282.083 75.0078 282.01 78.5723 281.961 82.5273C281.912 86.4336 281.888 91.2188 281.888 96.8828L281.741 114.827C281.741 120.003 281.79 124.471 281.888 128.23C281.985 131.99 282.132 134.31 282.327 135.188L289.944 137.02L289.725 142H261.087ZM322.024 142.879C317.142 142.879 312.796 141.805 308.987 139.656C305.179 137.459 302.176 134.456 299.979 130.647C297.781 126.79 296.683 122.322 296.683 117.244C296.683 111.775 297.879 106.99 300.271 102.889C302.713 98.7871 305.862 95.5889 309.72 93.2939C313.626 90.999 317.801 89.876 322.244 89.9248C328.836 89.9736 333.938 92.0732 337.552 96.2236C341.165 100.374 342.972 105.94 342.972 112.923V115.486H307.742V109.7H333.084L331.399 112.044V108.675C331.399 104.622 330.496 101.473 328.689 99.2266C326.883 96.9316 324.417 95.7842 321.292 95.7842C318.167 95.7842 315.457 97.127 313.162 99.8125C310.867 102.498 309.72 106.551 309.72 111.971V113.948C309.72 119.856 311.233 124.544 314.261 128.011C317.337 131.429 321.39 133.138 326.419 133.138C329.104 133.138 331.521 132.649 333.67 131.673C335.867 130.647 337.991 128.914 340.042 126.473L343.338 129.549C341.092 134.041 338.113 137.386 334.402 139.583C330.74 141.78 326.614 142.879 322.024 142.879ZM376.81 142.879C371.927 142.879 367.581 141.805 363.772 139.656C359.964 137.459 356.961 134.456 354.764 130.647C352.566 126.79 351.468 122.322 351.468 117.244C351.468 111.775 352.664 106.99 355.057 102.889C357.498 98.7871 360.647 95.5889 364.505 93.2939C368.411 90.999 372.586 89.876 377.029 89.9248C383.621 89.9736 388.724 92.0732 392.337 96.2236C395.95 100.374 397.757 105.94 397.757 112.923V115.486H362.527V109.7H387.869L386.185 112.044V108.675C386.185 104.622 385.281 101.473 383.475 99.2266C381.668 96.9316 379.202 95.7842 376.077 95.7842C372.952 95.7842 370.242 97.127 367.947 99.8125C365.652 102.498 364.505 106.551 364.505 111.971V113.948C364.505 119.856 366.019 124.544 369.046 128.011C372.122 131.429 376.175 133.138 381.204 133.138C383.89 133.138 386.307 132.649 388.455 131.673C390.652 130.647 392.776 128.914 394.827 126.473L398.123 129.549C395.877 134.041 392.898 137.386 389.188 139.583C385.525 141.78 381.399 142.879 376.81 142.879ZM431.595 142.879C426.907 142.879 422.635 141.854 418.777 139.803C414.92 137.703 411.844 134.749 409.549 130.94C407.254 127.132 406.106 122.688 406.106 117.61C406.106 112.532 407.327 107.918 409.769 103.768C412.21 99.5684 415.53 96.2236 419.729 93.7334C423.978 91.1943 428.812 89.9248 434.231 89.9248C439.358 89.9248 443.509 90.9258 446.683 92.9277C449.905 94.8809 451.517 97.2246 451.517 99.959C451.517 101.619 451.004 102.938 449.979 103.914C448.953 104.842 447.659 105.306 446.097 105.306C443.655 105.306 441.189 104.134 438.699 101.79L431.229 94.832L436.429 96.0771C433.743 95.54 431.155 95.8818 428.665 97.1025C426.175 98.3232 424.124 100.374 422.513 103.255C420.901 106.136 420.096 109.822 420.096 114.314C420.096 120.418 421.609 125.081 424.637 128.304C427.664 131.478 431.424 133.064 435.916 133.064C438.504 133.064 440.872 132.552 443.021 131.526C445.169 130.501 447.269 128.768 449.319 126.326L452.688 129.402C450.442 133.943 447.488 137.337 443.826 139.583C440.164 141.78 436.087 142.879 431.595 142.879ZM483.89 142.879C479.007 142.879 474.661 141.805 470.853 139.656C467.044 137.459 464.041 134.456 461.844 130.647C459.646 126.79 458.548 122.322 458.548 117.244C458.548 111.775 459.744 106.99 462.137 102.889C464.578 98.7871 467.728 95.5889 471.585 93.2939C475.491 90.999 479.666 89.876 484.109 89.9248C490.701 89.9736 495.804 92.0732 499.417 96.2236C503.03 100.374 504.837 105.94 504.837 112.923V115.486H469.607V109.7H494.949L493.265 112.044V108.675C493.265 104.622 492.361 101.473 490.555 99.2266C488.748 96.9316 486.282 95.7842 483.157 95.7842C480.032 95.7842 477.322 97.127 475.027 99.8125C472.732 102.498 471.585 106.551 471.585 111.971V113.948C471.585 119.856 473.099 124.544 476.126 128.011C479.202 131.429 483.255 133.138 488.284 133.138C490.97 133.138 493.387 132.649 495.535 131.673C497.732 130.647 499.856 128.914 501.907 126.473L505.203 129.549C502.957 134.041 499.979 137.386 496.268 139.583C492.605 141.78 488.479 142.879 483.89 142.879ZM568.265 142.659C566.019 142.415 563.626 142.244 561.087 142.146C558.548 142.049 556.253 142 554.202 142H513.772L513.406 136.727L520.804 135.042C520.999 134.505 521.146 132.649 521.243 129.476C521.39 126.253 521.463 122.151 521.463 117.171V97.9814C521.463 92.9033 521.39 88.7773 521.243 85.6035C521.146 82.3809 520.999 80.5254 520.804 80.0371L513.406 78.3525L513.772 73.0059H550.613C552.664 73.0059 555.154 72.9814 558.084 72.9326C561.014 72.835 563.626 72.6885 565.921 72.4932L568.704 89.1191L562.479 89.998L558.304 79.8906C556.741 79.5 555.057 79.3047 553.25 79.3047H542.483C539.407 79.3047 536.917 79.4268 535.013 79.6709C534.964 80.4521 534.915 82.1367 534.866 84.7246C534.817 87.2637 534.793 90.2666 534.793 93.7334V121.346C534.793 124.617 534.817 127.449 534.866 129.842C534.915 132.234 534.964 133.87 535.013 134.749C537.21 135.042 540.262 135.188 544.168 135.188H552.664C555.447 135.188 557.327 135.164 558.304 135.115C559.28 135.066 560.184 134.944 561.014 134.749L567.312 123.323L573.392 124.422L568.265 142.659ZM554.056 118.196L552.884 110.359C551.663 110.115 549.588 109.993 546.658 109.993H539.334C538.064 109.993 536.844 110.042 535.672 110.14C534.5 110.188 533.475 110.237 532.596 110.286V102.815C533.475 102.913 534.5 102.986 535.672 103.035C536.844 103.084 538.064 103.108 539.334 103.108H546.658C549.686 103.108 551.761 103.06 552.884 102.962L554.056 94.9053H559.988V118.196H554.056ZM598.367 142.879C594.949 142.879 591.971 142.171 589.432 140.755C586.941 139.339 585.013 137.581 583.646 135.481C582.278 133.382 581.595 131.331 581.595 129.329C581.595 126.546 582.449 124.251 584.158 122.444C585.867 120.638 588.626 119.148 592.435 117.977L610.672 112.264V107.356C610.672 104.671 609.476 102.327 607.083 100.325C604.69 98.3232 601.883 97.3223 598.66 97.3223C597.049 97.3223 595.95 97.6885 595.364 98.4209C594.778 99.1045 594.412 100.423 594.266 102.376L593.899 108.602C590.433 109.383 587.552 109.285 585.257 108.309C583.011 107.332 581.888 105.721 581.888 103.475C581.888 101.619 583.06 99.7148 585.403 97.7617C587.747 95.8086 590.506 94.0996 593.68 92.6348C596.902 91.1699 599.808 90.2666 602.396 89.9248C608.841 89.9248 613.968 91.4873 617.776 94.6123C621.634 97.7373 623.611 101.888 623.709 107.063L623.343 124.788C623.343 128.792 623.636 131.429 624.222 132.698L631.766 134.09V138.558L624.954 141.268C623.636 141.756 622.439 142.146 621.365 142.439C620.291 142.732 619.314 142.879 618.436 142.879C615.652 142.879 613.748 141.438 612.723 138.558L611.038 133.431L613.162 133.724C608.133 139.827 603.201 142.879 598.367 142.879ZM603.201 133.943C605.887 133.943 608.401 132.723 610.745 130.281V118.416L600.564 120.76C597 121.492 595.218 123.421 595.218 126.546C595.218 128.45 595.999 130.159 597.562 131.673C599.124 133.187 601.004 133.943 603.201 133.943ZM656.302 142.879C653.177 142.879 650.052 142.562 646.927 141.927C643.851 141.243 641.263 140.315 639.163 139.144L638.577 125.813H645.389L647.879 134.31C650.564 136.116 653.641 137.02 657.107 137.02C659.598 137.02 661.551 136.482 662.967 135.408C664.432 134.285 665.164 132.771 665.164 130.867C665.164 128.963 664.456 127.352 663.04 126.033C661.624 124.666 658.768 123.128 654.471 121.419C648.807 119.222 644.827 116.927 642.532 114.534C640.286 112.142 639.163 109.09 639.163 105.379C639.163 100.887 641.189 97.2002 645.242 94.3193C649.295 91.3896 654.568 89.9248 661.062 89.9248C663.455 89.9248 665.872 90.1689 668.313 90.6572C670.755 91.0967 672.781 91.6582 674.393 92.3418L675.711 105.379H668.973L666.336 97.1025C664.578 96.0771 662.503 95.5645 660.11 95.5645C657.62 95.5645 655.618 96.1504 654.104 97.3223C652.591 98.4941 651.834 100.008 651.834 101.863C651.834 103.914 652.688 105.623 654.397 106.99C656.155 108.309 659.329 109.944 663.919 111.897C669.046 114.095 672.684 116.39 674.832 118.782C676.98 121.126 678.055 124.007 678.055 127.425C678.055 132.063 676.028 135.799 671.976 138.631C667.923 141.463 662.698 142.879 656.302 142.879ZM711.526 142.879C706.644 142.879 702.298 141.805 698.489 139.656C694.681 137.459 691.678 134.456 689.48 130.647C687.283 126.79 686.185 122.322 686.185 117.244C686.185 111.775 687.381 106.99 689.773 102.889C692.215 98.7871 695.364 95.5889 699.222 93.2939C703.128 90.999 707.303 89.876 711.746 89.9248C718.338 89.9736 723.44 92.0732 727.054 96.2236C730.667 100.374 732.474 105.94 732.474 112.923V115.486H697.244V109.7H722.586L720.901 112.044V108.675C720.901 104.622 719.998 101.473 718.191 99.2266C716.385 96.9316 713.919 95.7842 710.794 95.7842C707.669 95.7842 704.959 97.127 702.664 99.8125C700.369 102.498 699.222 106.551 699.222 111.971V113.948C699.222 119.856 700.735 124.544 703.763 128.011C706.839 131.429 710.892 133.138 715.921 133.138C718.606 133.138 721.023 132.649 723.172 131.673C725.369 130.647 727.493 128.914 729.544 126.473L732.84 129.549C730.594 134.041 727.615 137.386 723.904 139.583C720.242 141.78 716.116 142.879 711.526 142.879Z" fill="black"/>
</g>
<g filter="url(#filter1_d_2_54)">
<path d="M214.484 180L214.426 178.594L216.164 178.281C216.021 178.073 215.865 177.858 215.695 177.637C215.539 177.402 215.318 177.109 215.031 176.758L210.773 171.719H209.504V170.391L210.949 170.039L217.414 163.379L215.461 163.027L215.559 161.602H222.199L222.258 163.086L220.305 163.398L213.137 169.98L213.117 168.789L219.152 175.781C219.79 176.536 220.272 177.096 220.598 177.461C220.936 177.826 221.197 178.092 221.379 178.262L222.961 178.555V180H214.484ZM204.406 180L204.309 178.594L206.281 178.145C206.307 178.001 206.333 177.513 206.359 176.68C206.385 175.833 206.398 174.733 206.398 173.379V168.262C206.398 166.908 206.379 165.807 206.34 164.961C206.314 164.102 206.275 163.607 206.223 163.477L204.27 163.027L204.348 161.602H212.043L212.121 163.027L210.168 163.477C210.103 163.607 210.051 164.102 210.012 164.961C209.986 165.807 209.973 166.908 209.973 168.262V173.379C209.973 174.733 209.986 175.833 210.012 176.68C210.038 177.513 210.07 178.001 210.109 178.145L211.848 178.594L211.75 180H204.406ZM223.352 180L223.254 178.711L225.207 178.184C225.233 178.04 225.259 177.695 225.285 177.148C225.324 176.602 225.35 175.879 225.363 174.98L225.383 172.578C225.383 171.914 225.357 171.302 225.305 170.742C225.266 170.169 225.207 169.648 225.129 169.18L223.117 168.73V167.48L228.078 166.172L228.801 166.699L228.625 168.457L228.703 168.496C230.057 166.908 231.587 166.113 233.293 166.113C234.53 166.113 235.604 166.582 236.516 167.52C237.44 168.457 237.902 169.837 237.902 171.66V174.98C237.902 175.71 237.915 176.387 237.941 177.012C237.967 177.624 238.013 178.014 238.078 178.184L240.012 178.711L239.914 180H232.707L232.648 178.711L234.426 178.184C234.465 177.923 234.497 177.52 234.523 176.973C234.562 176.413 234.582 175.788 234.582 175.098V172.148C234.582 170.872 234.283 169.967 233.684 169.434C233.098 168.887 232.447 168.613 231.73 168.613C230.507 168.613 229.504 169.147 228.723 170.215V174.863C228.723 175.684 228.736 176.4 228.762 177.012C228.788 177.624 228.827 178.014 228.879 178.184L230.793 178.711L230.695 180H223.352ZM241.164 180L241.086 178.672L243.156 178.184C243.182 178.066 243.208 177.741 243.234 177.207C243.273 176.673 243.299 175.931 243.312 174.98L243.332 172.715C243.332 171.999 243.306 171.348 243.254 170.762C243.215 170.176 243.156 169.648 243.078 169.18L240.988 168.73V167.48L246.184 166.172L246.887 166.699C246.822 167.337 246.77 167.988 246.73 168.652C246.704 169.303 246.691 170.046 246.691 170.879V174.863C246.691 175.671 246.704 176.387 246.73 177.012C246.77 177.637 246.815 178.027 246.867 178.184L248.957 178.672L248.859 180H241.164ZM245.07 163.203C244.354 163.203 243.775 162.982 243.332 162.539C242.902 162.096 242.688 161.569 242.688 160.957C242.688 160.345 242.902 159.818 243.332 159.375C243.775 158.932 244.354 158.711 245.07 158.711C245.773 158.711 246.333 158.932 246.75 159.375C247.167 159.818 247.375 160.345 247.375 160.957C247.375 161.569 247.167 162.096 246.75 162.539C246.333 162.982 245.773 163.203 245.07 163.203ZM260.793 177.676C260.441 178.496 259.882 179.134 259.113 179.59C258.345 180.033 257.512 180.254 256.613 180.254C255.233 180.254 254.1 179.857 253.215 179.062C252.342 178.255 251.906 177.031 251.906 175.391L252.004 168.184H249.816V167.363L254.621 163.34H255.422L255.363 167.402L255.305 174.98C255.305 175.944 255.526 176.647 255.969 177.09C256.411 177.533 257.036 177.754 257.844 177.754C258.677 177.754 259.432 177.441 260.109 176.816L260.793 177.676ZM253.957 168.184V166.387H259.914V168.184H253.957ZM271.965 177.676C271.613 178.496 271.053 179.134 270.285 179.59C269.517 180.033 268.684 180.254 267.785 180.254C266.405 180.254 265.272 179.857 264.387 179.062C263.514 178.255 263.078 177.031 263.078 175.391L263.176 168.184H260.988V167.363L265.793 163.34H266.594L266.535 167.402L266.477 174.98C266.477 175.944 266.698 176.647 267.141 177.09C267.583 177.533 268.208 177.754 269.016 177.754C269.849 177.754 270.604 177.441 271.281 176.816L271.965 177.676ZM265.129 168.184V166.387H271.086V168.184H265.129ZM279.777 180.234C278.475 180.234 277.316 179.948 276.301 179.375C275.285 178.789 274.484 177.988 273.898 176.973C273.312 175.944 273.02 174.753 273.02 173.398C273.02 171.94 273.339 170.664 273.977 169.57C274.628 168.477 275.467 167.624 276.496 167.012C277.538 166.4 278.651 166.1 279.836 166.113C281.594 166.126 282.954 166.686 283.918 167.793C284.882 168.9 285.363 170.384 285.363 172.246V172.93H275.969V171.387H282.727L282.277 172.012V171.113C282.277 170.033 282.036 169.193 281.555 168.594C281.073 167.982 280.415 167.676 279.582 167.676C278.749 167.676 278.026 168.034 277.414 168.75C276.802 169.466 276.496 170.547 276.496 171.992V172.52C276.496 174.095 276.9 175.345 277.707 176.27C278.527 177.181 279.608 177.637 280.949 177.637C281.665 177.637 282.31 177.507 282.883 177.246C283.469 176.973 284.035 176.51 284.582 175.859L285.461 176.68C284.862 177.878 284.068 178.77 283.078 179.355C282.102 179.941 281.001 180.234 279.777 180.234ZM298.391 180.352L297.688 179.941L297.727 177.891L297.629 177.852C297.056 178.75 296.444 179.375 295.793 179.727C295.142 180.078 294.465 180.254 293.762 180.254C292.629 180.254 291.587 179.98 290.637 179.434C289.699 178.874 288.951 178.099 288.391 177.109C287.844 176.12 287.57 174.967 287.57 173.652C287.57 172.129 287.922 170.807 288.625 169.688C289.341 168.555 290.259 167.682 291.379 167.07C292.512 166.445 293.69 166.133 294.914 166.133C295.383 166.133 295.865 166.185 296.359 166.289C296.867 166.393 297.29 166.549 297.629 166.758C297.629 166.237 297.622 165.599 297.609 164.844C297.596 164.076 297.577 163.353 297.551 162.676C297.538 161.986 297.525 161.504 297.512 161.23L295.129 160.84L295.051 159.609L300.461 158.184L301.164 158.691C301.112 159.993 301.066 161.217 301.027 162.363C300.988 163.509 300.969 164.707 300.969 165.957L300.93 173.223C300.93 174.264 300.956 175.13 301.008 175.82C301.06 176.51 301.105 177.051 301.145 177.441L303.215 177.93V179.121L298.391 180.352ZM294.973 177.637C295.415 177.637 295.865 177.526 296.32 177.305C296.789 177.083 297.232 176.693 297.648 176.133V169.258C297.323 168.737 296.913 168.366 296.418 168.145C295.936 167.923 295.454 167.812 294.973 167.812C293.853 167.812 292.948 168.255 292.258 169.141C291.581 170.026 291.242 171.204 291.242 172.676C291.242 174.277 291.6 175.508 292.316 176.367C293.046 177.214 293.931 177.637 294.973 177.637ZM317.746 180.234C316.496 180.234 315.357 179.961 314.328 179.414C313.299 178.854 312.479 178.066 311.867 177.051C311.255 176.035 310.949 174.85 310.949 173.496C310.949 172.142 311.275 170.911 311.926 169.805C312.577 168.685 313.462 167.793 314.582 167.129C315.715 166.452 317.004 166.113 318.449 166.113C319.816 166.113 320.923 166.38 321.77 166.914C322.629 167.435 323.059 168.06 323.059 168.789C323.059 169.232 322.922 169.583 322.648 169.844C322.375 170.091 322.03 170.215 321.613 170.215C320.962 170.215 320.305 169.902 319.641 169.277L317.648 167.422L319.035 167.754C318.319 167.611 317.629 167.702 316.965 168.027C316.301 168.353 315.754 168.9 315.324 169.668C314.895 170.436 314.68 171.419 314.68 172.617C314.68 174.245 315.083 175.488 315.891 176.348C316.698 177.194 317.701 177.617 318.898 177.617C319.589 177.617 320.22 177.48 320.793 177.207C321.366 176.934 321.926 176.471 322.473 175.82L323.371 176.641C322.772 177.852 321.984 178.757 321.008 179.355C320.031 179.941 318.944 180.234 317.746 180.234ZM324.387 180L324.289 178.672L326.34 178.184C326.379 177.871 326.418 177.201 326.457 176.172C326.496 175.143 326.516 173.958 326.516 172.617V168.652C326.516 167.663 326.509 166.66 326.496 165.645C326.483 164.616 326.464 163.698 326.438 162.891C326.424 162.083 326.398 161.504 326.359 161.152L324.035 160.84L323.977 159.609L329.328 158.184L330.109 158.691C330.07 159.577 330.038 160.443 330.012 161.289C329.986 162.135 329.966 163.086 329.953 164.141C329.94 165.182 329.934 166.458 329.934 167.969L329.895 172.754C329.895 174.134 329.908 175.326 329.934 176.328C329.96 177.331 329.999 177.949 330.051 178.184L332.082 178.672L332.023 180H324.387ZM340.969 180.234C339.549 180.234 338.306 179.941 337.238 179.355C336.171 178.77 335.337 177.956 334.738 176.914C334.139 175.859 333.84 174.648 333.84 173.281C333.84 171.797 334.178 170.521 334.855 169.453C335.533 168.385 336.418 167.565 337.512 166.992C338.618 166.406 339.816 166.113 341.105 166.113C343.124 166.113 344.758 166.758 346.008 168.047C347.258 169.336 347.883 171.003 347.883 173.047C347.883 174.401 347.577 175.625 346.965 176.719C346.353 177.799 345.52 178.659 344.465 179.297C343.423 179.922 342.258 180.234 340.969 180.234ZM341.281 178.496C342.18 178.496 342.889 178.079 343.41 177.246C343.931 176.4 344.191 175.273 344.191 173.867C344.191 172.057 343.866 170.592 343.215 169.473C342.577 168.353 341.724 167.793 340.656 167.793C339.732 167.793 338.99 168.223 338.43 169.082C337.87 169.941 337.59 171.1 337.59 172.559C337.59 174.277 337.935 175.697 338.625 176.816C339.328 177.936 340.214 178.496 341.281 178.496ZM360.363 177.676C360.012 178.496 359.452 179.134 358.684 179.59C357.915 180.033 357.082 180.254 356.184 180.254C354.803 180.254 353.671 179.857 352.785 179.062C351.913 178.255 351.477 177.031 351.477 175.391L351.574 168.184H349.387V167.363L354.191 163.34H354.992L354.934 167.402L354.875 174.98C354.875 175.944 355.096 176.647 355.539 177.09C355.982 177.533 356.607 177.754 357.414 177.754C358.247 177.754 359.003 177.441 359.68 176.816L360.363 177.676ZM353.527 168.184V166.387H359.484V168.184H353.527ZM360.969 180L360.871 178.711L362.824 178.184C362.863 177.871 362.902 177.201 362.941 176.172C362.98 175.143 363 173.958 363 172.617V168.672C363 167.721 362.993 166.738 362.98 165.723C362.967 164.694 362.948 163.77 362.922 162.949C362.909 162.129 362.883 161.53 362.844 161.152L360.52 160.84L360.461 159.609L365.754 158.184L366.516 158.691C366.464 159.551 366.424 160.404 366.398 161.25C366.372 162.096 366.346 163.086 366.32 164.219C366.307 165.339 366.288 166.751 366.262 168.457L366.359 168.477C367.688 166.901 369.204 166.113 370.91 166.113C372.147 166.113 373.221 166.589 374.133 167.539C375.057 168.477 375.52 169.863 375.52 171.699V174.98C375.52 175.71 375.533 176.38 375.559 176.992C375.598 177.591 375.643 177.988 375.695 178.184L377.629 178.711L377.531 180H370.363L370.266 178.711L372.043 178.184C372.082 177.923 372.115 177.52 372.141 176.973C372.18 176.413 372.199 175.788 372.199 175.098V172.148C372.199 170.898 371.906 170 371.32 169.453C370.747 168.893 370.09 168.613 369.348 168.613C368.124 168.613 367.121 169.147 366.34 170.215V174.863C366.34 176.686 366.392 177.793 366.496 178.184L368.391 178.711L368.312 180H360.969ZM386.105 180.234C384.803 180.234 383.645 179.948 382.629 179.375C381.613 178.789 380.812 177.988 380.227 176.973C379.641 175.944 379.348 174.753 379.348 173.398C379.348 171.94 379.667 170.664 380.305 169.57C380.956 168.477 381.796 167.624 382.824 167.012C383.866 166.4 384.979 166.1 386.164 166.113C387.922 166.126 389.283 166.686 390.246 167.793C391.21 168.9 391.691 170.384 391.691 172.246V172.93H382.297V171.387H389.055L388.605 172.012V171.113C388.605 170.033 388.365 169.193 387.883 168.594C387.401 167.982 386.743 167.676 385.91 167.676C385.077 167.676 384.354 168.034 383.742 168.75C383.13 169.466 382.824 170.547 382.824 171.992V172.52C382.824 174.095 383.228 175.345 384.035 176.27C384.855 177.181 385.936 177.637 387.277 177.637C387.993 177.637 388.638 177.507 389.211 177.246C389.797 176.973 390.363 176.51 390.91 175.859L391.789 176.68C391.19 177.878 390.396 178.77 389.406 179.355C388.43 179.941 387.329 180.234 386.105 180.234ZM398.879 180.234C398.046 180.234 397.212 180.15 396.379 179.98C395.559 179.798 394.868 179.551 394.309 179.238L394.152 175.684H395.969L396.633 177.949C397.349 178.431 398.169 178.672 399.094 178.672C399.758 178.672 400.279 178.529 400.656 178.242C401.047 177.943 401.242 177.539 401.242 177.031C401.242 176.523 401.053 176.094 400.676 175.742C400.298 175.378 399.536 174.967 398.391 174.512C396.88 173.926 395.819 173.314 395.207 172.676C394.608 172.038 394.309 171.224 394.309 170.234C394.309 169.036 394.849 168.053 395.93 167.285C397.01 166.504 398.417 166.113 400.148 166.113C400.786 166.113 401.431 166.178 402.082 166.309C402.733 166.426 403.273 166.576 403.703 166.758L404.055 170.234H402.258L401.555 168.027C401.086 167.754 400.533 167.617 399.895 167.617C399.23 167.617 398.697 167.773 398.293 168.086C397.889 168.398 397.688 168.802 397.688 169.297C397.688 169.844 397.915 170.299 398.371 170.664C398.84 171.016 399.686 171.452 400.91 171.973C402.277 172.559 403.247 173.171 403.82 173.809C404.393 174.434 404.68 175.202 404.68 176.113C404.68 177.35 404.139 178.346 403.059 179.102C401.978 179.857 400.585 180.234 398.879 180.234ZM417.824 180.234C416.991 180.234 416.158 180.15 415.324 179.98C414.504 179.798 413.814 179.551 413.254 179.238L413.098 175.684H414.914L415.578 177.949C416.294 178.431 417.115 178.672 418.039 178.672C418.703 178.672 419.224 178.529 419.602 178.242C419.992 177.943 420.188 177.539 420.188 177.031C420.188 176.523 419.999 176.094 419.621 175.742C419.243 175.378 418.482 174.967 417.336 174.512C415.826 173.926 414.764 173.314 414.152 172.676C413.553 172.038 413.254 171.224 413.254 170.234C413.254 169.036 413.794 168.053 414.875 167.285C415.956 166.504 417.362 166.113 419.094 166.113C419.732 166.113 420.376 166.178 421.027 166.309C421.678 166.426 422.219 166.576 422.648 166.758L423 170.234H421.203L420.5 168.027C420.031 167.754 419.478 167.617 418.84 167.617C418.176 167.617 417.642 167.773 417.238 168.086C416.835 168.398 416.633 168.802 416.633 169.297C416.633 169.844 416.861 170.299 417.316 170.664C417.785 171.016 418.632 171.452 419.855 171.973C421.223 172.559 422.193 173.171 422.766 173.809C423.339 174.434 423.625 175.202 423.625 176.113C423.625 177.35 423.085 178.346 422.004 179.102C420.923 179.857 419.53 180.234 417.824 180.234ZM439.738 177.441L441.77 177.93V179.121L436.965 180.352L436.301 179.941L436.32 177.832L436.242 177.793C435.63 178.73 434.986 179.375 434.309 179.727C433.632 180.078 432.922 180.254 432.18 180.254C430.708 180.254 429.504 179.805 428.566 178.906C427.629 178.008 427.16 176.647 427.16 174.824V172.129C427.16 171.191 427.115 170.208 427.023 169.18L424.895 168.73V167.48L429.953 166.172L430.695 166.699C430.604 167.988 430.559 169.557 430.559 171.406L430.539 174.395C430.539 175.566 430.799 176.413 431.32 176.934C431.854 177.454 432.557 177.715 433.43 177.715C433.911 177.715 434.4 177.585 434.895 177.324C435.402 177.064 435.845 176.634 436.223 176.035V172.754C436.223 172.038 436.21 171.393 436.184 170.82C436.158 170.234 436.118 169.688 436.066 169.18L433.82 168.73V167.48L438.957 166.172L439.621 166.66C439.582 167.35 439.556 168.04 439.543 168.73C439.543 169.421 439.543 170.254 439.543 171.23V173.633C439.543 174.427 439.562 175.137 439.602 175.762C439.641 176.387 439.686 176.947 439.738 177.441ZM442.98 186.895L442.883 185.586L444.816 185.059C444.829 184.837 444.855 184.199 444.895 183.145C444.934 182.09 444.96 180.827 444.973 179.355L445.051 172.5C445.051 171.875 445.025 171.283 444.973 170.723C444.921 170.163 444.855 169.648 444.777 169.18L442.766 168.73V167.48L447.727 166.172L448.469 166.699L448.254 168.516L448.352 168.574C448.885 167.806 449.51 167.207 450.227 166.777C450.956 166.335 451.737 166.113 452.57 166.113C453.638 166.113 454.608 166.387 455.48 166.934C456.366 167.467 457.069 168.229 457.59 169.219C458.124 170.195 458.391 171.354 458.391 172.695C458.391 174.089 458.072 175.352 457.434 176.484C456.809 177.617 455.93 178.522 454.797 179.199C453.677 179.876 452.382 180.215 450.91 180.215C450.051 180.215 449.204 180.065 448.371 179.766V181.914C448.371 183.503 448.417 184.551 448.508 185.059L451.086 185.527L450.988 186.895H442.98ZM450.988 178.301C452.082 178.301 452.967 177.91 453.645 177.129C454.335 176.335 454.693 175.13 454.719 173.516C454.732 171.966 454.387 170.781 453.684 169.961C452.98 169.128 452.134 168.711 451.145 168.711C450.051 168.711 449.126 169.206 448.371 170.195V177.5C449.087 178.034 449.96 178.301 450.988 178.301ZM460.246 180L460.148 178.672L462.199 178.184C462.238 177.871 462.277 177.201 462.316 176.172C462.355 175.143 462.375 173.958 462.375 172.617V168.652C462.375 167.663 462.368 166.66 462.355 165.645C462.342 164.616 462.323 163.698 462.297 162.891C462.284 162.083 462.258 161.504 462.219 161.152L459.895 160.84L459.836 159.609L465.188 158.184L465.969 158.691C465.93 159.577 465.897 160.443 465.871 161.289C465.845 162.135 465.826 163.086 465.812 164.141C465.799 165.182 465.793 166.458 465.793 167.969L465.754 172.754C465.754 174.134 465.767 175.326 465.793 176.328C465.819 177.331 465.858 177.949 465.91 178.184L467.941 178.672L467.883 180H460.246ZM475.5 180.117L469.855 168.184L468.391 167.656L468.488 166.367H475.637L475.734 167.656L473.781 168.184L477.609 176.621L475.5 180.117ZM483.957 166.367L484.055 167.656L482.57 168.184L477.16 179.141L474.68 184.316C474.146 185.397 473.599 186.133 473.039 186.523C472.492 186.927 471.887 187.129 471.223 187.129C470.598 187.129 470.096 186.979 469.719 186.68C469.354 186.393 469.172 186.016 469.172 185.547C469.172 184.635 469.816 183.997 471.105 183.633L474.465 182.695L472.648 184.18L476.301 177.285L476.691 176.621L480.344 168.184L478.41 167.656L478.488 166.367H483.957ZM498.645 180H490.734L490.637 178.711L492.59 178.184C492.616 177.793 492.629 177.402 492.629 177.012C492.642 176.608 492.648 176.094 492.648 175.469C492.648 174.831 492.648 173.952 492.648 172.832L492.629 168.223V165C492.629 162.969 493.143 161.315 494.172 160.039C495.214 158.763 496.555 158.125 498.195 158.125C499.159 158.125 499.96 158.333 500.598 158.75C501.236 159.154 501.555 159.668 501.555 160.293C501.555 160.671 501.431 160.964 501.184 161.172C500.949 161.38 500.643 161.484 500.266 161.484C499.706 161.484 499.146 161.23 498.586 160.723L496.965 159.199L498.059 159.395C496.639 159.395 495.93 160.872 495.93 163.828V166.426L495.988 168.223L496.027 172.715C496.027 173.704 496.04 174.707 496.066 175.723C496.092 176.725 496.125 177.546 496.164 178.184L498.742 178.672L498.645 180ZM490.363 168.223V166.953L492.629 166.367L494.66 166.426H499.348V168.223H490.363ZM505.812 180.234C504.901 180.234 504.107 180.046 503.43 179.668C502.766 179.29 502.251 178.822 501.887 178.262C501.522 177.702 501.34 177.155 501.34 176.621C501.34 175.879 501.568 175.267 502.023 174.785C502.479 174.303 503.215 173.906 504.23 173.594L509.094 172.07V170.762C509.094 170.046 508.775 169.421 508.137 168.887C507.499 168.353 506.75 168.086 505.891 168.086C505.461 168.086 505.168 168.184 505.012 168.379C504.855 168.561 504.758 168.913 504.719 169.434L504.621 171.094C503.697 171.302 502.928 171.276 502.316 171.016C501.717 170.755 501.418 170.326 501.418 169.727C501.418 169.232 501.73 168.724 502.355 168.203C502.98 167.682 503.716 167.227 504.562 166.836C505.422 166.445 506.197 166.204 506.887 166.113C508.605 166.113 509.973 166.53 510.988 167.363C512.017 168.197 512.544 169.303 512.57 170.684L512.473 175.41C512.473 176.478 512.551 177.181 512.707 177.52L514.719 177.891V179.082L512.902 179.805C512.551 179.935 512.232 180.039 511.945 180.117C511.659 180.195 511.398 180.234 511.164 180.234C510.422 180.234 509.914 179.85 509.641 179.082L509.191 177.715L509.758 177.793C508.417 179.421 507.102 180.234 505.812 180.234ZM507.102 177.852C507.818 177.852 508.488 177.526 509.113 176.875V173.711L506.398 174.336C505.448 174.531 504.973 175.046 504.973 175.879C504.973 176.387 505.181 176.842 505.598 177.246C506.014 177.65 506.516 177.852 507.102 177.852ZM523.098 180.234C521.848 180.234 520.708 179.961 519.68 179.414C518.651 178.854 517.831 178.066 517.219 177.051C516.607 176.035 516.301 174.85 516.301 173.496C516.301 172.142 516.626 170.911 517.277 169.805C517.928 168.685 518.814 167.793 519.934 167.129C521.066 166.452 522.355 166.113 523.801 166.113C525.168 166.113 526.275 166.38 527.121 166.914C527.98 167.435 528.41 168.06 528.41 168.789C528.41 169.232 528.273 169.583 528 169.844C527.727 170.091 527.382 170.215 526.965 170.215C526.314 170.215 525.656 169.902 524.992 169.277L523 167.422L524.387 167.754C523.671 167.611 522.98 167.702 522.316 168.027C521.652 168.353 521.105 168.9 520.676 169.668C520.246 170.436 520.031 171.419 520.031 172.617C520.031 174.245 520.435 175.488 521.242 176.348C522.049 177.194 523.052 177.617 524.25 177.617C524.94 177.617 525.572 177.48 526.145 177.207C526.717 176.934 527.277 176.471 527.824 175.82L528.723 176.641C528.124 177.852 527.336 178.757 526.359 179.355C525.383 179.941 524.296 180.234 523.098 180.234ZM540.402 177.676C540.051 178.496 539.491 179.134 538.723 179.59C537.954 180.033 537.121 180.254 536.223 180.254C534.842 180.254 533.71 179.857 532.824 179.062C531.952 178.255 531.516 177.031 531.516 175.391L531.613 168.184H529.426V167.363L534.23 163.34H535.031L534.973 167.402L534.914 174.98C534.914 175.944 535.135 176.647 535.578 177.09C536.021 177.533 536.646 177.754 537.453 177.754C538.286 177.754 539.042 177.441 539.719 176.816L540.402 177.676ZM533.566 168.184V166.387H539.523V168.184H533.566ZM548.547 180.234C547.128 180.234 545.884 179.941 544.816 179.355C543.749 178.77 542.915 177.956 542.316 176.914C541.717 175.859 541.418 174.648 541.418 173.281C541.418 171.797 541.757 170.521 542.434 169.453C543.111 168.385 543.996 167.565 545.09 166.992C546.197 166.406 547.395 166.113 548.684 166.113C550.702 166.113 552.336 166.758 553.586 168.047C554.836 169.336 555.461 171.003 555.461 173.047C555.461 174.401 555.155 175.625 554.543 176.719C553.931 177.799 553.098 178.659 552.043 179.297C551.001 179.922 549.836 180.234 548.547 180.234ZM548.859 178.496C549.758 178.496 550.467 178.079 550.988 177.246C551.509 176.4 551.77 175.273 551.77 173.867C551.77 172.057 551.444 170.592 550.793 169.473C550.155 168.353 549.302 167.793 548.234 167.793C547.31 167.793 546.568 168.223 546.008 169.082C545.448 169.941 545.168 171.1 545.168 172.559C545.168 174.277 545.513 175.697 546.203 176.816C546.906 177.936 547.792 178.496 548.859 178.496ZM557.395 180L557.316 178.711L559.25 178.184C559.276 178.053 559.302 177.708 559.328 177.148C559.367 176.589 559.393 175.866 559.406 174.98L559.445 172.578C559.445 171.927 559.419 171.322 559.367 170.762C559.315 170.189 559.25 169.661 559.172 169.18L557.18 168.73V167.48L562.082 166.172L562.727 166.66L562.609 169.219L562.707 169.238C563.306 168.066 563.918 167.272 564.543 166.855C565.181 166.426 565.812 166.211 566.438 166.211C566.971 166.211 567.427 166.354 567.805 166.641C568.182 166.927 568.371 167.357 568.371 167.93C568.371 168.529 568.169 168.997 567.766 169.336C567.362 169.661 566.867 169.824 566.281 169.824C565.422 169.824 564.628 169.453 563.898 168.711L564.641 168.848C563.924 169.316 563.299 170.104 562.766 171.211L562.805 173.867C562.818 174.87 562.837 175.775 562.863 176.582C562.902 177.389 562.941 177.923 562.98 178.184L565.695 178.652L565.637 180H557.395ZM575.812 180.117L570.168 168.184L568.703 167.656L568.801 166.367H575.949L576.047 167.656L574.094 168.184L577.922 176.621L575.812 180.117ZM584.27 166.367L584.367 167.656L582.883 168.184L577.473 179.141L574.992 184.316C574.458 185.397 573.911 186.133 573.352 186.523C572.805 186.927 572.199 187.129 571.535 187.129C570.91 187.129 570.409 186.979 570.031 186.68C569.667 186.393 569.484 186.016 569.484 185.547C569.484 184.635 570.129 183.997 571.418 183.633L574.777 182.695L572.961 184.18L576.613 177.285L577.004 176.621L580.656 168.184L578.723 167.656L578.801 166.367H584.27ZM594.309 180.312C593.605 180.312 593.013 180.085 592.531 179.629C592.049 179.16 591.809 178.574 591.809 177.871C591.809 177.168 592.049 176.582 592.531 176.113C593.013 175.632 593.605 175.391 594.309 175.391C595.025 175.391 595.624 175.632 596.105 176.113C596.587 176.582 596.828 177.168 596.828 177.871C596.828 178.574 596.587 179.16 596.105 179.629C595.624 180.085 595.025 180.312 594.309 180.312Z" fill="#452828" fill-opacity="0.95" shape-rendering="crispEdges"/>
</g>
<g filter="url(#filter2_d_2_54)">
<path d="M620.352 159.008H638.72V161.248H620.352V159.008ZM632.416 154.528L634.144 153.536C635.488 154.656 636.928 156.288 637.568 157.44L635.712 158.56C635.136 157.376 633.76 155.712 632.416 154.528ZM623.68 163.2H625.824V168.448C625.824 172.48 625.248 177.696 621.312 181.344C620.896 180.896 620.16 180.288 619.616 179.968C623.232 176.576 623.68 171.904 623.68 168.416V163.2ZM628.992 153.184H631.296C631.488 166.528 632.736 179.36 636.128 180.128C636.672 180.256 637.056 178.336 637.28 175.328C637.728 175.808 638.528 176.384 639.072 176.704C638.528 181.696 636.992 183.2 635.072 182.208C630.528 180.768 629.472 167.584 628.992 153.184ZM635.872 163.328L637.888 163.744C636.064 172.224 632.64 179.072 627.136 182.592C626.784 182.048 626.08 181.248 625.568 180.832C630.88 177.76 634.272 171.04 635.872 163.328ZM620.256 168.16H628.928V170.4H620.256V168.16ZM610.112 174.176C610.016 173.728 609.696 172.672 609.408 172.128C610.08 172 610.816 171.2 611.808 170.016C612.896 168.864 616.256 164.352 618.464 160L620.352 161.152C617.792 165.504 614.688 169.888 611.68 172.992V173.024C611.68 173.024 610.112 173.728 610.112 174.176ZM610.112 174.176L609.984 172.352L611.136 171.552L619.936 169.952C619.872 170.528 619.872 171.424 619.936 171.872C611.84 173.504 610.752 173.792 610.112 174.176ZM609.888 166.496C609.792 166.016 609.408 164.896 609.152 164.288C609.696 164.16 610.272 163.424 610.976 162.304C611.712 161.248 614.08 157.056 615.424 153.184L617.568 154.176C615.904 158.176 613.6 162.304 611.296 165.216V165.28C611.296 165.28 609.888 166.016 609.888 166.496ZM609.888 166.496L609.856 164.8L610.944 164.064L616.8 163.456C616.736 164.032 616.64 164.896 616.672 165.344C611.296 166.048 610.4 166.24 609.888 166.496ZM609.344 178.304C612.032 177.696 616.128 176.672 620.128 175.648L620.384 177.632C616.672 178.656 612.736 179.744 609.792 180.544L609.344 178.304ZM658.624 153.504H661.024V160.256H658.624V153.504ZM648.96 159.04H670.176V161.28H648.96V159.04ZM658.496 159.904L660.8 160.672C658.08 165.472 653.728 169.696 649.344 172.416C649.024 171.936 648.192 170.912 647.68 170.432C652.032 168.064 656.128 164.224 658.496 159.904ZM649.344 179.744C652.736 179.072 657.952 177.92 662.912 176.736L663.136 178.944C658.56 180.064 653.632 181.248 650.08 182.08L649.344 179.744ZM668.832 164.32L670.624 166.016C668.448 167.904 665.536 170.144 663.328 171.488L661.984 170.08C664.128 168.672 667.104 166.144 668.832 164.32ZM661.28 160.384C662.624 169.28 665.568 177.056 671.36 180.224C670.816 180.704 670.048 181.6 669.664 182.272C663.552 178.56 660.64 170.496 659.136 160.736L661.28 160.384ZM648.576 153.216L650.816 153.92C648.672 159.328 645.312 164.704 641.824 168.224C641.568 167.68 640.896 166.4 640.448 165.824C643.68 162.816 646.72 158.048 648.576 153.216ZM645.248 161.472L647.488 159.2L647.552 159.232V182.496H645.248V161.472ZM653.312 168.256L655.552 165.984L655.584 166.016V179.968H653.312V168.256Z" fill="#452828" fill-opacity="0.95" shape-rendering="crispEdges"/>
</g>
<defs>
<filter id="filter0_d_2_54" x="197.834" y="60.1885" width="539.006" height="90.6904" filterUnits="userSpaceOnUse" color-interpolation-filters="sRGB">
<feFlood flood-opacity="0" result="BackgroundImageFix"/>
<feColorMatrix in="SourceAlpha" type="matrix" values="0 0 0 0 0 0 0 0 0 0 0 0 0 0 0 0 0 0 127 0" result="hardAlpha"/>
<feOffset dy="4"/>
<feGaussianBlur stdDeviation="2"/>
<feComposite in2="hardAlpha" operator="out"/>
<feColorMatrix type="matrix" values="0 0 0 0 0 0 0 0 0 0 0 0 0 0 0 0 0 0 0.25 0"/>
<feBlend mode="normal" in2="BackgroundImageFix" result="effect1_dropShadow_2_54"/>
<feBlend mode="normal" in="SourceGraphic" in2="effect1_dropShadow_2_54" result="shape"/>
</filter>
<filter id="filter1_d_2_54" x="200.27" y="158.125" width="400.559" height="37.0039" filterUnits="userSpaceOnUse" color-interpolation-filters="sRGB">
<feFlood flood-opacity="0" result="BackgroundImageFix"/>
<feColorMatrix in="SourceAlpha" type="matrix" values="0 0 0 0 0 0 0 0 0 0 0 0 0 0 0 0 0 0 127 0" result="hardAlpha"/>
<feOffset dy="4"/>
<feGaussianBlur stdDeviation="2"/>
<feComposite in2="hardAlpha" operator="out"/>
<feColorMatrix type="matrix" values="0 0 0 0 0 0 0 0 0 0 0 0 0 0 0 0 0 0 0.25 0"/>
<feBlend mode="normal" in2="BackgroundImageFix" result="effect1_dropShadow_2_54"/>
<feBlend mode="normal" in="SourceGraphic" in2="effect1_dropShadow_2_54" result="shape"/>
</filter>
<filter id="filter2_d_2_54" x="605.152" y="153.184" width="70.208" height="38.016" filterUnits="userSpaceOnUse" color-interpolation-filters="sRGB">
<feFlood flood-opacity="0" result="BackgroundImageFix"/>
<feColorMatrix in="SourceAlpha" type="matrix" values="0 0 0 0 0 0 0 0 0 0 0 0 0 0 0 0 0 0 127 0" result="hardAlpha"/>
<feOffset dy="4"/>
<feGaussianBlur stdDeviation="2"/>
<feComposite in2="hardAlpha" operator="out"/>
<feColorMatrix type="matrix" values="0 0 0 0 0 0 0 0 0 0 0 0 0 0 0 0 0 0 0.25 0"/>
<feBlend mode="normal" in2="BackgroundImageFix" result="effect1_dropShadow_2_54"/>
<feBlend mode="normal" in="SourceGraphic" in2="effect1_dropShadow_2_54" result="shape"/>
</filter>
</defs>
</svg>
